# xmcd
# Track frame offsets:
# 150
# 17674
# 34752
# 49015
# 66174
# 82805
# 97133
# 112370
# 127712
# 141605
# 154629
# 168654
# 182552
# 194502
#
# Disc length: 2795 seconds
# Revision: 0
# Processed by: cddbd v1.5.1PL0 Copyright (c) Steve Scherf et al.
# Submitted via: VisiTrax 2.9.10.228 - For more info visit www.synapsa.com
#
DISCID=c20ae90e
DTITLE=Pine Tree String Band - Bluegrass Banjo Favorites - Disc 1
DYEAR=1900
DGENRE=
TTITLE0=Salt Creek
TTITLE1=Arkansas Traveler
TTITLE2=Duelin' Banjos
TTITLE3=Old Joe Clark
TTITLE4=Jack ofr Diamonds
TTITLE5=O Susanna
TTITLE6=Cindy
TTITLE7=John Brown's Dream
TTITLE8=Sweet Sunny South
TTITLE9=Liza Jame
TTITLE10=She'll Be Comin' Round the Mountain
TTITLE11=Buffalo Gals
TTITLE12=John Handy
TTITLE13=Cider
EXTD=Two Disc Set
EXTT0=
EXTT1=
EXTT2=
EXTT3=
EXTT4=
EXTT5=
EXTT6=
EXTT7=
EXTT8=
EXTT9=
EXTT10=
EXTT11=
EXTT12=
EXTT13=
PLAYORDER=
